<svg xmlns="http://www.w3.org/2000/svg" xmlns:xlink="http://www.w3.org/1999/xlink" version="1.1" id="Layer_1" x="0px" y="0px" width="1024pt" height="1024pt" viewBox="0 0 550 550" xml:space="preserve">
<path fill="#000000" opacity="1.000000" stroke="#000000" d=" M334.005615,485.995636   C328.780670,492.535370 321.107117,494.474457 313.703217,497.075409   C311.342712,497.904633 308.668152,499.510742 307.424438,501.547363   C302.971588,508.839111 298.364044,516.230164 296.211975,524.537598   C295.072754,528.935364 294.472839,533.042725 290.061005,535.352722   C288.690186,536.070496 287.401123,536.944397 285.590179,538.039978   C285.629120,538.683960 285.703552,539.915039 285.776367,541.119263   C285.375000,541.291931 285.075958,541.546814 284.814575,541.512817   C282.996887,541.276001 281.184601,540.726379 279.375061,540.743835   C269.699921,540.837280 260.011993,541.446777 250.357925,541.087280   C245.668137,540.912598 239.928009,540.308594 239.089615,533.853760   C238.050659,525.854858 242.829468,522.786987 249.960815,520.038452   C256.377197,517.565613 263.339172,516.242615 269.337921,513.053284   C272.850372,511.185791 275.014618,506.705688 277.523438,503.212769   C277.678925,502.996307 275.679016,500.424591 274.440521,500.182220   C271.869965,499.679199 269.110046,500.246582 266.475494,499.950775   C252.195511,498.347351 237.890015,496.881042 223.686646,494.746429   C219.970779,494.187988 218.603058,495.155212 217.402222,498.132172   C214.004211,506.556061 210.357712,514.882385 207.092041,523.356140   C203.971420,531.453613 199.432495,536.791870 190.020966,538.738892   C180.480164,540.712769 171.335968,539.639160 162.091049,538.683960   C159.308929,538.396484 156.796234,535.501465 154.060791,533.736877   C155.102646,528.010681 158.111221,524.103333 163.531357,521.611023   C172.429672,517.519348 181.807571,513.603027 186.843979,504.548676   C189.390793,499.970093 191.200180,494.534119 191.623917,489.345398   C192.062820,483.970886 186.897827,482.191956 182.587677,480.201111   C174.924927,476.661743 167.496552,472.617889 159.867294,469.002014   C155.386993,466.878540 150.582611,465.426453 146.148132,463.221619   C139.441071,459.886841 132.371902,456.896210 126.463539,452.427856   C117.250374,445.460236 108.863754,437.551453 106.435364,425.180939   C104.564178,415.648956 100.922501,406.408539 99.659012,396.828644   C98.327560,386.733490 97.166740,376.395599 100.475296,366.191010   C101.890762,361.825287 101.391388,356.835938 102.823883,352.479034   C107.839546,337.223999 115.627136,323.928162 127.788742,312.740417   C142.038391,299.631866 157.599121,288.633667 174.268448,279.155334   C192.576721,268.745148 201.303696,252.274124 205.912903,232.718170   C208.276550,222.689636 206.869766,212.915314 204.090302,203.300720   C202.637024,198.273621 200.492981,193.405212 198.202423,188.687759   C197.566406,187.377899 195.312439,186.174011 193.763229,186.125717   C190.317932,186.018311 186.851929,186.706726 183.389038,187.009750   C167.864075,188.368225 152.131668,189.721680 137.007782,185.668869   C127.948196,183.241119 118.190445,181.233582 110.781761,174.279205   C106.020149,169.809570 105.622353,161.691498 110.887482,157.837708   C115.125038,154.736053 119.870987,152.227386 124.632996,149.964020   C136.111053,144.508514 147.730728,139.350983 159.694260,134.159454   C160.169434,134.290756 160.243637,134.335892 160.317841,134.381027   C160.211685,134.254166 160.105530,134.127304 159.999390,134.000427   C161.752045,133.000839 163.504684,132.001236 165.676926,131.119202   C166.096527,131.236755 166.415634,131.262131 166.415634,131.262131   C166.415634,131.262131 165.992432,131.005646 165.992432,131.005646   C169.608765,125.194344 173.149307,119.334000 176.867386,113.588524   C179.463440,109.576866 182.631348,105.896881 184.855515,101.703659   C185.638611,100.227310 185.109192,97.008179 183.935684,95.701080   C170.969986,81.259354 170.867432,64.983978 176.603806,47.776070   C183.398819,27.392475 199.918610,19.629969 218.990005,15.158599   C222.564682,14.320504 226.021454,12.754672 229.627853,12.326241   C236.027298,11.566008 242.506454,11.505602 248.940140,10.998605   C261.830200,9.982819 273.928833,13.620156 285.901093,17.504129   C298.793518,21.686619 308.790680,29.869963 317.656982,40.181190   C323.389160,46.847534 327.410950,54.121334 328.258545,62.293854   C329.063507,70.055420 327.634399,78.165215 326.387085,85.994339   C324.736603,96.353790 327.086182,104.952583 334.095428,112.953156   C338.828003,118.355087 342.436890,124.842705 345.946350,131.178162   C348.158936,135.172470 345.543091,142.253601 339.962128,144.793488   C330.689087,149.013672 320.887756,152.142212 311.160278,155.268021   C305.584015,157.059875 299.699310,157.878357 293.995667,159.303818   C293.244843,159.491470 292.417389,160.588257 292.177277,161.422760   C287.956451,176.089630 283.743378,190.759811 279.709106,205.478729   C278.229645,210.876434 276.566620,216.350784 276.129150,221.880493   C275.237701,233.148239 280.051605,243.320038 285.235443,252.650833   C290.553528,262.223267 297.274078,271.412598 305.050110,279.075684   C309.757507,283.714691 317.527496,285.419495 324.112793,287.943420   C338.027161,293.276337 349.846802,286.776459 361.455597,280.436584   C363.260101,279.451111 363.958191,276.346039 365.047028,274.160889   C368.729858,266.769562 371.696381,258.920746 376.166504,252.046463   C382.482330,242.333740 390.634827,233.850952 402.371521,231.067505   C414.690796,228.145905 418.873505,231.434280 423.005951,242.623199   C426.639984,252.462677 425.156830,262.227264 421.646729,271.816376   C421.318329,272.713470 420.928131,273.587921 420.185760,275.405151   C424.250275,273.927612 427.399048,272.396729 430.723511,271.674469   C434.684998,270.813812 438.831696,270.068024 442.836426,270.307098   C449.833069,270.724762 455.205017,280.258179 452.903809,287.175385   C452.021271,289.828125 451.872498,292.797058 450.643433,295.247864   C447.822784,300.872345 444.543701,306.266968 441.283691,312.051361   C441.751068,312.365143 442.207825,312.769135 442.738190,313.013031   C449.196136,315.982971 454.743958,321.136841 450.090149,330.589386   C444.175720,342.602295 434.682373,350.616180 421.527588,354.024628   C420.380493,354.321869 419.387878,355.215454 418.323517,355.832031   C419.175934,356.894867 419.823792,358.286926 420.915253,358.964996   C426.421326,362.385681 427.070312,367.682983 427.467560,373.504822   C428.085052,382.553619 423.619171,389.821503 419.741180,397.195221   C414.585449,406.998566 411.107697,417.138672 408.591919,427.983185   C406.814484,435.645020 403.035278,443.332489 395.468811,448.180634   C389.524414,451.989502 384.529602,457.319733 378.488953,460.930054   C369.094910,466.544556 359.149719,471.232941 349.496429,476.422241   C348.165985,477.137451 347.299622,478.688568 345.992798,479.480225   C342.271912,481.734344 338.434326,483.795929 334.273834,485.845062   C333.832153,485.709839 333.759277,485.662842 333.686401,485.615845   C333.792816,485.742432 333.899231,485.869019 334.005615,485.995636  M202.152222,28.648615   C201.879654,28.715611 201.672531,28.870256 200.828796,29.283413   C190.049057,34.986294 185.212769,44.973640 181.866241,56.070972   C183.814529,54.680412 185.724960,53.042614 186.486923,50.980453   C189.656265,42.402809 195.501236,36.057045 203.053391,30.478064   C203.356949,30.296303 203.660522,30.114542 204.695251,29.856243   C209.462372,28.197504 214.229507,26.538765 219.812164,24.834980   C223.776932,24.880699 227.797241,24.526148 231.693375,25.066641   C237.431778,25.862701 242.735870,28.420578 243.755936,34.627831   C244.682556,40.266453 247.108063,43.112465 252.696716,43.577690   C254.155167,43.699097 255.560989,44.403019 257.001099,44.802979   C265.102570,47.052959 273.207153,49.291813 282.697968,51.918396   C282.162415,44.543560 282.298981,38.197922 281.096466,32.117104   C279.825500,25.690401 275.737976,21.912037 268.692200,20.212475   C251.709335,16.115931 235.357132,18.240343 218.242661,22.980743   C213.009079,24.846422 207.775513,26.712099 202.152222,28.648615  M296.909332,57.962055   C298.560059,59.023281 300.210815,60.084507 302.242279,61.693325   C308.145325,66.874611 314.048370,72.055901 319.858459,77.155579   C323.986176,60.330517 315.756683,43.358524 297.825592,32.240238   C294.923798,30.378017 292.022034,28.515799 289.373535,26.816128   C289.373535,36.294067 289.373535,44.977833 289.373535,53.952663   C291.798187,55.139656 294.155579,56.293736 296.909332,57.962055  M228.691833,55.036278   C229.459793,54.981922 230.227768,54.927570 231.810272,55.132732   C237.461060,54.563366 234.302246,50.794613 234.714859,48.001640   C220.770111,46.094883 208.736298,50.606964 196.624985,57.249222   C198.749237,59.173183 201.381271,61.660053 203.439194,61.251930   C211.700623,59.613564 219.784210,57.078541 228.691833,55.036278  M166.921173,137.588867   C166.540390,137.983612 166.159622,138.378372 165.107971,138.952637   C153.331528,144.705887 141.622818,150.604233 129.748611,156.148087   C124.231964,158.723709 118.103745,160.128830 113.584175,166.075485   C116.427505,168.343124 118.783829,171.305908 121.820648,172.429581   C129.234665,175.172867 136.835785,177.972382 144.598709,179.065918   C153.931824,180.380661 163.508942,180.165405 172.983200,180.235123   C194.665009,180.394653 213.481964,170.788437 231.806320,163.242538   C229.018555,152.966095 226.400314,143.314590 223.615189,133.047882   C209.039139,132.358490 193.159637,132.249084 179.683578,123.359230   C175.288361,128.400223 171.367035,132.897690 166.921173,137.588867  M282.461609,492.166504   C302.478027,492.737579 320.620392,488.129211 337.346649,476.154907   C351.505615,466.018494 367.358002,458.279175 382.143890,448.975159   C391.307495,443.208954 398.990967,435.704956 401.626099,424.599152   C404.604126,412.048096 408.723846,400.059540 415.487762,388.928162   C419.039246,383.083466 421.152130,376.258301 419.294281,369.337585   C418.677826,367.041046 415.824493,364.819489 413.457306,363.738617   C412.261963,363.192841 409.645874,364.988861 408.076355,366.235107   C406.282227,367.659637 405.167236,369.984894 403.306519,371.262329   C402.273621,371.971313 399.868927,371.909882 398.914612,371.150330   C398.011475,370.431488 397.523315,368.027924 398.043610,366.929443   C399.084229,364.732422 400.896942,362.886841 402.465393,360.956635   C408.332458,353.736237 413.277802,346.132080 413.166077,336.313873   C413.091614,329.770813 410.192322,326.633209 403.235382,325.760437   C402.242096,327.618286 401.180389,329.494476 400.222595,331.422302   C398.911316,334.061615 396.649780,335.619080 394.289734,333.768341   C393.160675,332.882935 393.033783,329.634735 393.623138,327.841217   C395.590820,321.853241 398.212982,316.084045 400.343506,310.144592   C402.216461,304.923157 400.831848,300.165131 397.026459,296.347595   C389.337250,288.633881 379.533112,285.773193 369.012268,284.821259   C368.226929,284.750214 367.289398,284.921326 366.613312,285.310822   C361.120972,288.475037 355.674133,291.718231 349.995026,295.066101   C351.334351,295.670349 352.632385,296.386292 354.014252,296.855164   C358.266815,298.298065 362.529816,299.718750 366.831635,301.004608   C369.428894,301.780914 371.902435,302.804321 370.998657,306.014526   C370.054138,309.369507 367.352753,309.342682 364.504150,308.377319   C362.616211,307.737579 360.661316,307.298157 358.761505,306.690460   C347.214966,302.997040 335.759521,298.988708 324.113159,295.644592   C308.638672,291.201233 296.180511,282.923981 286.827393,269.640503   C275.913391,254.140106 268.188690,237.735657 269.686768,218.211166   C270.878784,202.675491 274.946838,187.787109 280.241058,173.204010   C283.189270,165.083054 286.930389,157.173233 289.054474,148.846909   C292.669067,134.677765 292.519531,120.149147 290.839325,105.657166   C289.691132,95.753410 285.151337,87.660667 277.626038,81.204765   C269.655212,74.366623 260.691528,69.080032 250.301331,67.466248   C232.720428,64.735619 216.495743,67.391136 205.586838,83.378860   C198.159088,94.264732 191.458359,105.646675 183.840652,117.746964   C189.412842,119.725494 194.099091,122.438499 199.002380,122.914162   C209.517426,123.934196 220.147034,123.740265 230.722977,124.199150   C232.365631,124.270424 234.428360,124.742126 235.433609,125.827888   C236.088608,126.535339 235.309738,128.720062 234.946106,130.186691   C234.364868,132.531143 232.631027,135.038818 233.081818,137.107635   C234.550598,143.848175 235.937943,150.838867 238.942337,156.954269   C242.808472,164.823730 242.947937,166.349426 234.955948,170.127823   C233.151154,170.981079 231.285370,171.709015 229.431107,172.453384   C221.143799,175.780304 212.850510,179.092316 204.326385,182.502914   C205.173645,184.332458 205.902847,185.806946 206.548676,187.317108   C212.811462,201.961731 216.365814,217.022629 213.115829,233.011124   C208.821091,254.139359 200.078354,272.100403 180.495972,283.822540   C166.396942,292.262299 153.028427,302.029114 139.908768,311.963013   C130.222565,319.297211 121.698921,327.974487 116.069466,339.158142   C102.148148,366.814850 103.972832,394.757965 113.899529,422.993713   C118.438438,435.904327 126.957932,445.325043 138.966705,451.529785   C147.979370,456.186462 157.117340,460.646332 166.420578,464.684540   C181.337646,471.159515 196.158218,478.036682 211.526321,483.250092   C234.108246,490.910645 257.666504,493.025940 282.461609,492.166504  M428.557220,320.341766   C427.039459,319.391663 424.755676,318.734802 424.244415,317.399384   C423.829559,316.315613 425.208008,314.066589 426.377930,312.948425   C429.375183,310.083893 432.872925,307.741272 435.854645,304.862701   C441.095428,299.803101 444.980011,293.851227 446.181152,286.492340   C447.173309,280.414215 444.103058,276.679565 438.166931,278.003113   C432.466431,279.274078 426.666138,281.360413 421.718048,284.402954   C416.293427,287.738525 411.793640,292.578156 407.478516,296.260803   C407.478516,303.771179 407.478516,310.604919 407.478516,318.192932   C421.135559,322.605896 423.058136,333.586395 419.402496,347.359863   C428.814606,343.452789 436.370209,338.720612 441.095673,330.621979   C442.539764,328.147003 442.759888,324.957855 443.540527,322.095764   C440.129578,321.170654 436.749512,320.088928 433.290680,319.406555   C432.102234,319.172089 430.716919,319.935394 428.557220,320.341766  M298.775482,106.960876   C298.668243,121.339645 298.561005,135.718414 298.451050,150.464249   C310.625336,147.994247 323.541565,145.195999 335.297455,138.633377   C338.683258,136.743286 339.290131,133.804703 337.408691,130.573471   C335.575165,127.424454 333.275757,124.548515 331.408905,121.416763   C322.405273,106.312576 309.325317,95.722595 294.080292,87.682274   C295.584656,93.677269 297.138000,99.867531 298.775482,106.960876  M416.179260,247.570984   C413.484436,236.270645 410.228638,234.750870 399.777283,239.975815   C398.293396,240.717636 396.852020,241.574890 395.485138,242.515533   C383.271973,250.919922 376.912567,263.194092 372.327576,277.163849   C383.788300,279.222290 394.154053,282.884155 403.168396,291.215424   C406.801758,284.015686 410.263519,277.446655 413.456451,270.749512   C416.837585,263.657532 417.992554,256.189423 416.179260,247.570984  M292.995819,512.586609   C295.158295,508.234009 297.320770,503.881439 299.791077,498.909302   C295.935638,499.109894 293.068787,498.945587 290.360352,499.523621   C288.860626,499.843689 286.961823,501.114502 286.374603,502.453186   C280.501678,515.841919 270.986816,524.164001 256.061218,526.105835   C252.511017,526.567688 249.229858,529.097656 245.824936,530.676392   C247.332962,532.620422 248.297745,533.359802 249.365387,533.565552   C261.054718,535.818115 272.600037,535.112305 283.659546,530.718933   C285.859589,529.844971 287.627655,526.921570 288.759247,524.545288   C290.459290,520.975342 291.421539,517.054077 292.995819,512.586609  M197.473862,525.895081   C202.268875,514.656921 207.063889,503.418793 212.104599,491.604828   C207.252197,490.267639 203.332748,489.187531 198.872833,487.958496   C199.138397,512.039490 181.935837,521.610352 163.736282,530.691284   C172.135071,531.414001 180.167084,531.862915 188.103653,531.188538   C191.190887,530.926270 194.062805,528.130066 197.473862,525.895081  M302.511383,71.985703   C294.988892,65.781364 286.871582,60.744301 277.270111,58.299530   C268.726196,56.124039 260.270813,53.602585 251.761902,51.287109   C249.250549,50.603710 246.689911,50.101360 243.973816,49.474979   C243.063782,52.427647 241.617355,54.723091 245.999802,55.796631   C268.290649,61.257084 288.782776,70.329010 305.961212,86.038208   C308.141388,88.031937 311.167206,89.100967 314.936554,91.243813   C314.298492,81.579430 308.325195,77.231461 302.511383,71.985703  M185.835678,64.475677   C184.689682,66.848427 180.146683,66.975227 180.845444,71.624962   C185.284653,69.200035 188.947083,67.199425 192.924988,65.026497   C191.613586,63.514324 190.581558,62.324299 188.651352,60.098560   C187.687057,61.653416 186.984863,62.785660 185.835678,64.475677  M423.266205,255.151688   C423.383728,255.038040 423.501282,254.924393 423.618835,254.810745   C423.500488,254.830887 423.382172,254.851028 423.266205,255.151688  M183.562729,478.511322   C183.562729,478.511322 183.473495,478.558929 183.562729,478.511322  M261.517578,12.435286   C261.517578,12.435286 261.568481,12.524079 261.517578,12.435286  z"/>
<path fill="#FFFFFF" opacity="1.000000" stroke="#FFFFFF" d=" M281.966400,492.192383   C257.666504,493.025940 234.108246,490.910645 211.526321,483.250092   C196.158218,478.036682 181.337646,471.159515 166.420578,464.684540   C157.117340,460.646332 147.979370,456.186462 138.966705,451.529785   C126.957932,445.325043 118.438438,435.904327 113.899529,422.993713   C103.972832,394.757965 102.148148,366.814850 116.069466,339.158142   C121.698921,327.974487 130.222565,319.297211 139.908768,311.963013   C153.028427,302.029114 166.396942,292.262299 180.495972,283.822540   C200.078354,272.100403 208.821091,254.139359 213.115829,233.011124   C216.365814,217.022629 212.811462,201.961731 206.548676,187.317108   C205.902847,185.806946 205.173645,184.332458 204.326385,182.502914   C212.850510,179.092316 221.143799,175.780304 229.431107,172.453384   C231.285370,171.709015 233.151154,170.981079 234.955948,170.127823   C242.947937,166.349426 242.808472,164.823730 238.942337,156.954269   C235.937943,150.838867 234.550598,143.848175 233.081818,137.107635   C232.631027,135.038818 234.364868,132.531143 234.946106,130.186691   C235.309738,128.720062 236.088608,126.535339 235.433609,125.827888   C234.428360,124.742126 232.365631,124.270424 230.722977,124.199150   C220.147034,123.740265 209.517426,123.934196 199.002380,122.914162   C194.099091,122.438499 189.412842,119.725494 183.840652,117.746964   C191.458359,105.646675 198.159088,94.264732 205.586838,83.378860   C216.495743,67.391136 232.720428,64.735619 250.301331,67.466248   C260.691528,69.080032 269.655212,74.366623 277.626038,81.204765   C285.151337,87.660667 289.691132,95.753410 290.839325,105.657166   C292.519531,120.149147 292.669067,134.677765 289.054474,148.846909   C286.930389,157.173233 283.189270,165.083054 280.241058,173.204010   C274.946838,187.787109 270.878784,202.675491 269.686768,218.211166   C268.188690,237.735657 275.913391,254.140106 286.827393,269.640503   C296.180511,282.923981 308.638672,291.201233 324.113159,295.644592   C335.759521,298.988708 347.214966,302.997040 358.761505,306.690460   C360.661316,307.298157 362.616211,307.737579 364.504150,308.377319   C367.352753,309.342682 370.054138,309.369507 370.998657,306.014526   C371.902435,302.804321 369.428894,301.780914 366.831635,301.004608   C362.529816,299.718750 358.266815,298.298065 354.014252,296.855164   C352.632385,296.386292 351.334351,295.670349 349.995026,295.066101   C355.674133,291.718231 361.120972,288.475037 366.613312,285.310822   C367.289398,284.921326 368.226929,284.750214 369.012268,284.821259   C379.533112,285.773193 389.337250,288.633881 397.026459,296.347595   C400.831848,300.165131 402.216461,304.923157 400.343506,310.144592   C398.212982,316.084045 395.590820,321.853241 393.623138,327.841217   C393.033783,329.634735 393.160675,332.882935 394.289734,333.768341   C396.649780,335.619080 398.911316,334.061615 400.222595,331.422302   C401.180389,329.494476 402.242096,327.618286 403.235382,325.760437   C410.192322,326.633209 413.091614,329.770813 413.166077,336.313873   C413.277802,346.132080 408.332458,353.736237 402.465393,360.956635   C400.896942,362.886841 399.084229,364.732422 398.043610,366.929443   C397.523315,368.027924 398.011475,370.431488 398.914612,371.150330   C399.868927,371.909882 402.273621,371.971313 403.306519,371.262329   C405.167236,369.984894 406.282227,367.659637 408.076355,366.235107   C409.645874,364.988861 412.261963,363.192841 413.457306,363.738617   C415.824493,364.819489 418.677826,367.041046 419.294281,369.337585   C421.152130,376.258301 419.039246,383.083466 415.487762,388.928162   C408.723846,400.059540 404.604126,412.048096 401.626099,424.599152   C398.990967,435.704956 391.307495,443.208954 382.143890,448.975159   C367.358002,458.279175 351.505615,466.018494 337.346649,476.154907   C320.620392,488.129211 302.478027,492.737579 281.966400,492.192383  M267.714264,103.273476   C262.904755,107.572281 260.757874,112.920883 261.649658,119.328659   C262.396423,124.694649 266.617310,128.415619 270.994629,127.805992   C275.900696,127.122742 278.970093,121.674461 278.272430,114.887566   C277.369812,106.106628 274.398651,102.542465 267.714264,103.273476  z"/>
<path fill="#FFFFFF" opacity="1.000000" stroke="#FFFFFF" d=" M428.989380,320.292358   C430.716919,319.935394 432.102234,319.172089 433.290680,319.406555   C436.749512,320.088928 440.129578,321.170654 443.540527,322.095764   C442.759888,324.957855 442.539764,328.147003 441.095673,330.621979   C436.370209,338.720612 428.814606,343.452789 419.402496,347.359863   C423.058136,333.586395 421.135559,322.605896 407.478516,318.192932   C407.478516,310.604919 407.478516,303.771179 407.478516,296.260803   C411.793640,292.578156 416.293427,287.738525 421.718048,284.402954   C426.666138,281.360413 432.466431,279.274078 438.166931,278.003113   C444.103058,276.679565 447.173309,280.414215 446.181152,286.492340   C444.980011,293.851227 441.095428,299.803101 435.854645,304.862701   C432.872925,307.741272 429.375183,310.083893 426.377930,312.948425   C425.208008,314.066589 423.829559,316.315613 424.244415,317.399384   C424.755676,318.734802 427.039459,319.391663 428.989380,320.292358  z"/>
<path fill="#B5B5B5" opacity="1.000000" stroke="#B5B5B5" d=" M298.733429,106.509338   C297.138000,99.867531 295.584656,93.677269 294.080292,87.682274   C309.325317,95.722595 322.405273,106.312576 331.408905,121.416763   C333.275757,124.548515 335.575165,127.424454 337.408691,130.573471   C339.290131,133.804703 338.683258,136.743286 335.297455,138.633377   C323.541565,145.195999 310.625336,147.994247 298.451050,150.464249   C298.561005,135.718414 298.668243,121.339645 298.733429,106.509338  z"/>
<path fill="#FFFFFF" opacity="1.000000" stroke="#FFFFFF" d=" M416.276550,247.986649   C417.992554,256.189423 416.837585,263.657532 413.456451,270.749512   C410.263519,277.446655 406.801758,284.015686 403.168396,291.215424   C394.154053,282.884155 383.788300,279.222290 372.327576,277.163849   C376.912567,263.194092 383.271973,250.919922 395.485138,242.515533   C396.852020,241.574890 398.293396,240.717636 399.777283,239.975815   C410.228638,234.750870 413.484436,236.270645 416.276550,247.986649  z"/>
<path fill="#FFFFFF" opacity="1.000000" stroke="#FFFFFF" d=" M219.026901,23.049280   C235.357132,18.240343 251.709335,16.115931 268.692200,20.212475   C275.737976,21.912037 279.825500,25.690401 281.096466,32.117104   C282.298981,38.197922 282.162415,44.543560 282.697968,51.918396   C273.207153,49.291813 265.102570,47.052959 257.001099,44.802979   C255.560989,44.403019 254.155167,43.699097 252.696716,43.577690   C247.108063,43.112465 244.682556,40.266453 243.755936,34.627831   C242.735870,28.420578 237.431778,25.862701 231.693375,25.066641   C227.797241,24.526148 223.776932,24.880699 219.439178,24.553513   C219.053085,23.864456 219.039993,23.456869 219.026901,23.049280  z"/>
<path fill="#F2D050" opacity="1.000000" stroke="#F2D050" d=" M292.846680,512.934387   C291.421539,517.054077 290.459290,520.975342 288.759247,524.545288   C287.627655,526.921570 285.859589,529.844971 283.659546,530.718933   C272.600037,535.112305 261.054718,535.818115 249.365387,533.565552   C248.297745,533.359802 247.332962,532.620422 245.824936,530.676392   C249.229858,529.097656 252.511017,526.567688 256.061218,526.105835   C270.986816,524.164001 280.501678,515.841919 286.374603,502.453186   C286.961823,501.114502 288.860626,499.843689 290.360352,499.523621   C293.068787,498.945587 295.935638,499.109894 299.791077,498.909302   C297.320770,503.881439 295.158295,508.234009 292.846680,512.934387  z"/>
<path fill="#F2D050" opacity="1.000000" stroke="#F2D050" d=" M197.253326,526.191528   C194.062805,528.130066 191.190887,530.926270 188.103653,531.188538   C180.167084,531.862915 172.135071,531.414001 163.736282,530.691284   C181.935837,521.610352 199.138397,512.039490 198.872833,487.958496   C203.332748,489.187531 207.252197,490.267639 212.104599,491.604828   C207.063889,503.418793 202.268875,514.656921 197.253326,526.191528  z"/>
<path fill="#B5B5B5" opacity="1.000000" stroke="#B5B5B5" d=" M302.795227,72.201530   C308.325195,77.231461 314.298492,81.579430 314.936554,91.243813   C311.167206,89.100967 308.141388,88.031937 305.961212,86.038208   C288.782776,70.329010 268.290649,61.257084 245.999802,55.796631   C241.617355,54.723091 243.063782,52.427647 243.973816,49.474979   C246.689911,50.101360 249.250549,50.603710 251.761902,51.287109   C260.270813,53.602585 268.726196,56.124039 277.270111,58.299530   C286.871582,60.744301 294.988892,65.781364 302.795227,72.201530  z"/>
<path fill="#F2D050" opacity="1.000000" stroke="#F2D050" d=" M167.445724,137.395142   C171.367035,132.897690 175.288361,128.400223 179.683578,123.359230   C193.159637,132.249084 209.039139,132.358490 223.615189,133.047882   C226.400314,143.314590 229.018555,152.966095 231.806320,163.242538   C213.481964,170.788437 194.665009,180.394653 172.983200,180.235123   C163.508942,180.165405 153.931824,180.380661 144.598709,179.065918   C136.835785,177.972382 129.234665,175.172867 121.820648,172.429581   C118.783829,171.305908 116.427505,168.343124 113.584175,166.075485   C118.103745,160.128830 124.231964,158.723709 129.748611,156.148087   C141.622818,150.604233 153.331528,144.705887 165.532562,138.953735   C165.957138,138.954834 166.135101,139.136841 166.036896,139.480957   C160.244278,143.496857 154.847382,147.789352 148.785645,150.694717   C139.730087,155.035034 130.162994,158.296387 120.903046,162.227631   C117.163422,163.815292 116.911110,167.283661 120.613693,169.231796   C125.664299,171.889206 130.926498,174.771286 136.429520,175.824280   C152.819046,178.960403 169.426315,178.914612 185.999176,177.026123   C189.269409,176.653458 192.617096,176.165527 195.698273,175.077301   C205.033752,171.780075 214.238693,168.115326 223.528717,164.686493   C229.226578,162.583481 229.598602,161.246658 227.730118,155.332809   C226.057007,150.037354 224.786118,144.529922 224.152267,139.022278   C223.761093,135.623428 222.530975,134.935974 219.518280,134.931427   C206.813141,134.912277 194.379166,133.268311 182.719864,127.820564   C180.122604,126.607010 178.764862,127.218910 176.998093,129.586319   C174.562561,132.849823 173.393692,137.806046 167.864685,137.846375   C167.729202,137.692139 167.445724,137.395142 167.445724,137.395142  z"/>
<path fill="#F2D050" opacity="1.000000" stroke="#F2D050" d=" M298.161987,32.824852   C315.756683,43.358524 323.986176,60.330517 319.858459,77.155579   C314.048370,72.055901 308.145325,66.874611 302.141663,61.325195   C302.041077,60.957066 302.220734,60.768501 302.569153,60.848347   C307.653534,64.064323 312.389435,67.200447 317.265350,70.429283   C317.257721,70.433533 317.613464,70.339912 317.799652,70.109352   C318.105316,69.730850 318.506683,69.266273 318.512543,68.833183   C318.630890,60.102299 316.143433,52.335865 309.969635,45.936363   C305.894409,41.712170 301.863800,37.444916 297.900482,33.103966   C297.987732,33.010998 298.161987,32.824852 298.161987,32.824852  z"/>
<path fill="#F2D050" opacity="1.000000" stroke="#F2D050" d=" M227.933548,54.874985   C219.784210,57.078541 211.700623,59.613564 203.439194,61.251930   C201.381271,61.660053 198.749237,59.173183 196.624985,57.249222   C208.736298,50.606964 220.770111,46.094883 234.714859,48.001640   C234.302246,50.794613 237.461060,54.563366 231.454834,54.636955   C232.863846,50.367939 231.367447,48.756641 227.519424,49.005440   C225.055435,49.164749 222.545074,49.399315 220.173462,50.038105   C214.280197,51.625435 208.413177,53.342869 202.641846,55.318378   C201.663040,55.653419 201.212128,57.530567 200.517319,58.695248   C201.689972,58.855503 202.951828,59.378300 204.020325,59.115337   C209.633850,57.733814 215.157074,55.963127 220.800446,54.736034   C223.061203,54.244461 225.549057,54.797455 227.933548,54.874985  z"/>
<path fill="#F2D050" opacity="1.000000" stroke="#F2D050" d=" M228.312683,54.955631   C225.549057,54.797455 223.061203,54.244461 220.800446,54.736034   C215.157074,55.963127 209.633850,57.733814 204.020325,59.115337   C202.951828,59.378300 201.689972,58.855503 200.517319,58.695248   C201.212128,57.530567 201.663040,55.653419 202.641846,55.318378   C208.413177,53.342869 214.280197,51.625435 220.173462,50.038105   C222.545074,49.399315 225.055435,49.164749 227.519424,49.005440   C231.367447,48.756641 232.863846,50.367939 231.047577,54.507198   C230.227768,54.927570 229.459793,54.981922 228.312683,54.955631  z"/>
<path fill="#F2D050" opacity="1.000000" stroke="#F2D050" d=" M296.513000,57.447819   C294.155579,56.293736 291.798187,55.139656 289.373535,53.952663   C289.373535,44.977833 289.373535,36.294067 289.373535,26.816128   C292.022034,28.515799 294.923798,30.378017 297.993774,32.532547   C298.161987,32.824852 297.987732,33.010998 297.524353,33.026684   C295.660797,32.748928 294.260651,32.455490 292.197052,32.023014   C292.192688,40.985798 289.901031,49.780148 296.940979,57.043777   C296.797485,57.177578 296.513000,57.447819 296.513000,57.447819  z"/>
<path fill="#B5B5B5" opacity="1.000000" stroke="#B5B5B5" d=" M202.532684,30.585606   C195.501236,36.057045 189.656265,42.402809 186.486923,50.980453   C185.724960,53.042614 183.814529,54.680412 181.866241,56.070972   C185.212769,44.973640 190.049057,34.986294 201.415741,29.576263   C202.179367,30.107944 202.356033,30.346775 202.532684,30.585606  z" stroke-width="1.7"/>
<path fill="#B5B5B5" opacity="1.000000" stroke="#B5B5B5" d=" M186.059174,64.196793   C186.984863,62.785660 187.687057,61.653416 188.651352,60.098560   C190.581558,62.324299 191.613586,63.514324 192.924988,65.026497   C188.947083,67.199425 185.284653,69.200035 180.845444,71.624962   C180.146683,66.975227 184.689682,66.848427 186.059174,64.196793  z"/>
<path fill="#B5B5B5" opacity="1.000000" stroke="#B5B5B5" d=" M218.634781,23.015011   C219.039993,23.456869 219.053085,23.864456 219.031403,24.576035   C214.229507,26.538765 209.462372,28.197504 204.156738,29.609997   C203.259460,29.101761 202.900696,28.839769 202.541931,28.577778   C207.775513,26.712099 213.009079,24.846422 218.634781,23.015011  z" stroke-width="0.9"/>
<path fill="#F2D050" opacity="1.000000" stroke="#F2D050" d=" M301.951294,61.051399   C300.210815,60.084507 298.560059,59.023281 296.711182,57.704937   C296.513000,57.447819 296.797485,57.177578 297.289490,57.083614   C299.261261,58.249268 300.740997,59.508884 302.220734,60.768501   C302.220734,60.768501 302.041077,60.957066 301.951294,61.051399  z"/>
<path fill="#F2D050" opacity="1.000000" stroke="#F2D050" d=" M165.867981,138.863983   C166.159622,138.378372 166.540390,137.983612 167.183441,137.492004   C167.445724,137.395142 167.729202,137.692139 167.693405,138.070923   C167.150116,138.678741 166.642609,138.907791 166.135101,139.136841   C166.135101,139.136841 165.957138,138.954834 165.867981,138.863983  z"/>
<path fill="#000000" opacity="1.000000" stroke="#000000" d=" M423.265015,255.011429   C423.382172,254.851028 423.500488,254.830887 423.618835,254.810745   C423.501282,254.924393 423.383728,255.038040 423.265015,255.011429  z"/>
<path fill="#B5B5B5" opacity="1.000000" stroke="#B5B5B5" d=" M202.347076,28.613197   C202.900696,28.839769 203.259460,29.101761 203.791153,29.648266   C203.660522,30.114542 203.356949,30.296303 202.793030,30.531834   C202.356033,30.346775 202.179367,30.107944 201.766785,29.490833   C201.672531,28.870256 201.879654,28.715611 202.347076,28.613197  z" stroke-width="0.9"/>
<path fill="#000000" opacity="1.000000" stroke="#000000" d=" M165.996216,131.002823   C165.992432,131.005646 166.415634,131.262131 166.415634,131.262131   C166.415634,131.262131 166.096527,131.236755 166.051224,131.114471   C166.005920,130.992203 166.000000,131.000000 165.996216,131.002823  z"/>
<path fill="#000000" opacity="1.000000" stroke="#000000" d=" M159.999695,134.000214   C160.105530,134.127304 160.211685,134.254166 160.317841,134.381027   C160.243637,134.335892 160.169434,134.290756 160.047913,134.122498   C160.000610,133.999390 160.000000,134.000000 159.999695,134.000214  z"/>
<path fill="#000000" opacity="1.000000" stroke="#000000" d=" M183.518112,478.535126   C183.473495,478.558929 183.562729,478.511322 183.518112,478.535126  z"/>
<path fill="#000000" opacity="1.000000" stroke="#000000" d=" M334.002808,485.997803   C333.899231,485.869019 333.792816,485.742432 333.686401,485.615845   C333.759277,485.662842 333.832153,485.709839 333.950195,485.881470   C333.995392,486.006104 334.000000,486.000000 334.002808,485.997803  z"/>
<path fill="#000000" opacity="1.000000" stroke="#000000" d=" M261.543030,12.479683   C261.568481,12.524079 261.517578,12.435286 261.543030,12.479683  z"/>
<path fill="#000000" opacity="1.000000" stroke="#000000" d=" M268.039978,103.138489   C274.398651,102.542465 277.369812,106.106628 278.272430,114.887566   C278.970093,121.674461 275.900696,127.122742 270.994629,127.805992   C266.617310,128.415619 262.396423,124.694649 261.649658,119.328659   C260.757874,112.920883 262.904755,107.572281 268.039978,103.138489  z"/>
<path fill="#F2D050" opacity="1.000000" stroke="#F2D050" d=" M166.036896,139.480957   C166.642609,138.907791 167.150116,138.678741 167.828888,138.225159   C173.393692,137.806046 174.562561,132.849823 176.998093,129.586319   C178.764862,127.218910 180.122604,126.607010 182.719864,127.820564   C194.379166,133.268311 206.813141,134.912277 219.518280,134.931427   C222.530975,134.935974 223.761093,135.623428 224.152267,139.022278   C224.786118,144.529922 226.057007,150.037354 227.730118,155.332809   C229.598602,161.246658 229.226578,162.583481 223.528717,164.686493   C214.238693,168.115326 205.033752,171.780075 195.698273,175.077301   C192.617096,176.165527 189.269409,176.653458 185.999176,177.026123   C169.426315,178.914612 152.819046,178.960403 136.429520,175.824280   C130.926498,174.771286 125.664299,171.889206 120.613693,169.231796   C116.911110,167.283661 117.163422,163.815292 120.903046,162.227631   C130.162994,158.296387 139.730087,155.035034 148.785645,150.694717   C154.847382,147.789352 160.244278,143.496857 166.036896,139.480957  z"/>
<path fill="#F2D050" opacity="1.000000" stroke="#F2D050" d=" M302.569153,60.848347   C300.740997,59.508884 299.261261,58.249268 297.432983,56.949814   C289.901031,49.780148 292.192688,40.985798 292.197052,32.023014   C294.260651,32.455490 295.660797,32.748928 297.437103,33.119652   C301.863800,37.444916 305.894409,41.712170 309.969635,45.936363   C316.143433,52.335865 318.630890,60.102299 318.512543,68.833183   C318.506683,69.266273 318.105316,69.730850 317.799652,70.109352   C317.613464,70.339912 317.257721,70.433533 317.265350,70.429283   C312.389435,67.200447 307.653534,64.064323 302.569153,60.848347  z"/>
</svg>